<?xml version="1.0" encoding="UTF-8"?>
<svg width="95px" height="20px" viewBox="0 0 95 20" version="1.1" xmlns="http://www.w3.org/2000/svg" xmlns:xlink="http://www.w3.org/1999/xlink">
    <title>access-to-energy-institute-a2ei-logo-vector</title>
    <g id="Mockups" stroke="none" stroke-width="1" fill="none" fill-rule="evenodd">
        <g id="Explore_07" transform="translate(-189.000000, -890.000000)" fill="#000000" fill-rule="nonzero">
            <g id="Group-21" transform="translate(118.000000, 880.000000)">
                <g id="access-to-energy-institute-a2ei-logo-vector" transform="translate(71.000000, 10.000000)">
                    <path d="M29.8908046,18.6513625 L30.132874,18.8983051 L40.5591466,18.8983051 L40.8012159,18.6513625 L40.8012159,16.6229053 L40.5591466,16.3759627 L32.5016955,16.3759627 L32.5016955,10.8021151 L40.3170772,10.8021151 L40.5591466,10.5551724 L40.5591466,8.52671524 L40.3170772,8.27977263 L32.5016955,8.27977263 L32.5016955,2.9705064 L40.5591466,2.9705064 L40.8012159,2.72356379 L40.8012159,0.677467832 L40.5591466,0.430525216 L30.1501647,0.430525216 L29.9080953,0.677467832 L29.9080953,18.6513625 L29.8908046,18.6513625 Z M16.2484679,6.23367667 L16.4905372,6.48061929 L18.478964,6.48061929 L18.7210333,6.23367667 L18.7210333,5.72215269 C18.7210333,3.69369549 20.0869961,2.58245372 21.6950282,2.58245372 C23.3030603,2.58245372 24.7900577,3.69369549 24.7900577,5.72215269 C24.7900577,7.23908589 24.046559,8.17394008 23.1820256,9.02060048 C20.2080308,11.9309956 15.9891078,14.2063954 15.9891078,17.6283145 L15.9891078,18.6337237 L16.2311772,18.8806663 L26.9168098,18.8806663 L27.1415885,18.6337237 L27.1415885,16.6052665 L26.9168098,16.3583239 L19.0149747,16.3583239 C19.0322654,14.964862 21.8160628,13.43029 24.9456737,10.5375337 C26.0349858,9.53212446 27.2972045,7.87408119 27.2972045,5.72215269 C27.2972045,2.30023359 24.6863137,0.148305085 21.7123188,0.148305085 C18.6172893,0.148305085 16.2484679,2.4237049 16.2484679,5.72215269 L16.2484679,6.23367667 L16.2484679,6.23367667 Z M7.44751803,3.71133425 L9.55697948,11.8075243 L5.33805657,11.8075243 L7.44751803,3.71133425 Z M0.87706432,18.6513625 L0.998098993,18.8983051 L3.34962979,18.8983051 L3.59169914,18.6513625 L4.66372054,14.3475055 L10.2140249,14.3475055 L11.2860462,18.6513625 L11.5281156,18.8983051 L13.8796464,18.8983051 L14.0006811,18.6513625 L9.05555012,0.677467832 L8.81348077,0.430525216 L6.08155528,0.430525216 L5.83948594,0.677467832 L0.87706432,18.6513625 Z M85.4630105,0.412886458 L85.2209411,0.659829073 L85.2209411,2.68828627 L85.4630105,2.93522889 L87.9874479,2.93522889 L87.9874479,16.3406851 L84.2180824,16.3406851 L83.976013,16.5876278 L83.976013,18.616085 L84.2180824,18.8630276 L94.384995,18.8630276 L94.6270643,18.616085 L94.6270643,16.5876278 L94.384995,16.3406851 L90.6156294,16.3406851 L90.6156294,2.93522889 L93.1400669,2.93522889 L93.3821362,2.68828627 L93.3821362,0.677467832 L93.1400669,0.430525216 L85.4630105,0.430525216 L85.4630105,0.412886458 Z" id="Shape"></path>
                    <path d="M80.97374,10.0656605 L82.1270643,10.0656605 L82.1270643,9.73508194 L81.2451105,9.73508194 L81.2451105,9.03260261 L82.1101037,9.03260261 L82.1101037,8.70202409 L81.2451105,8.70202409 L81.2451105,8.02020591 L82.1270643,8.02020591 L82.1270643,7.6896274 L80.97374,7.6896274 L80.97374,10.0656605 Z M80.1935501,8.04086707 L80.7193303,8.04086707 L80.7193303,7.71028856 L79.3794388,7.71028856 L79.3794388,8.04086707 L79.905219,8.04086707 L79.905219,10.0656605 L80.1765894,10.0656605 L80.1935501,8.04086707 L80.1935501,8.04086707 Z M78.8706193,9.38384227 C78.8706193,9.63177616 78.7010128,9.81772657 78.4805243,9.81772657 C78.2430752,9.81772657 78.10739,9.63177616 78.10739,9.38384227 L78.10739,7.73094971 L77.8360195,7.73094971 L77.8360195,9.36318112 C77.8360195,9.81772657 78.0734687,10.1276439 78.446603,10.1276439 C78.5992489,10.1276439 78.8027767,10.0449993 78.8875799,9.94169351 L78.9045406,9.92103236 L78.9215012,9.94169351 L78.9554225,10.0656605 L79.1589503,10.0656605 L79.1589503,7.73094971 L78.8706193,7.73094971 L78.8706193,9.38384227 L78.8706193,9.38384227 Z M77.0727902,8.04086707 L77.5985704,8.04086707 L77.5985704,7.71028856 L76.258679,7.71028856 L76.258679,8.04086707 L76.7844592,8.04086707 L76.7844592,10.0656605 L77.0558296,10.0656605 L77.0727902,8.04086707 L77.0727902,8.04086707 Z M75.6650562,10.0656605 L76.0381905,10.0656605 L76.0381905,9.73508194 L75.9873086,9.73508194 L75.9873086,8.04086707 L76.0381905,8.04086707 L76.0381905,7.71028856 L75.6650562,7.71028856 L75.6650562,8.04086707 L75.7159381,8.04086707 L75.7159381,9.73508194 L75.6650562,9.73508194 L75.6650562,10.0656605 Z M74.9187875,8.04086707 L75.4445677,8.04086707 L75.4445677,7.71028856 L74.1046763,7.71028856 L74.1046763,8.04086707 L74.6304565,8.04086707 L74.6304565,10.0656605 L74.9018269,10.0656605 L74.9187875,8.04086707 L74.9187875,8.04086707 Z M73.9350697,8.33012327 C73.9350697,7.93756128 73.6636993,7.66896624 73.3075256,7.66896624 C72.9683126,7.66896624 72.7139029,7.93756128 72.7139029,8.30946211 C72.7139029,8.70202409 72.9343913,8.92929682 73.1888011,9.01194145 C73.2566437,9.03260261 73.341447,9.05326376 73.3923289,9.07392492 C73.5280141,9.11524723 73.6976206,9.1772307 73.6976206,9.42516459 C73.6976206,9.65243732 73.5449748,9.79706542 73.3244863,9.79706542 C73.1209585,9.79706542 72.9174307,9.611115 72.9343913,9.30119765 L72.6630209,9.42516459 C72.6630209,9.77640426 72.9852733,10.1276439 73.341447,10.1276439 C73.7485026,10.1276439 73.9859517,9.77640426 73.9859517,9.42516459 C73.9859517,9.03260261 73.7824239,8.82599104 73.5110535,8.74334641 C73.4432109,8.72268525 73.3753683,8.70202409 73.3075256,8.68136294 C73.1039978,8.61937946 73.0022339,8.49541252 73.0022339,8.30946211 C73.0022339,8.1235117 73.1209585,7.9788836 73.3244863,7.9788836 C73.5110535,7.9788836 73.6467387,8.14417285 73.6467387,8.33012327 L73.9350697,8.33012327 L73.9350697,8.33012327 Z M72.0863588,9.4664869 L71.2722475,7.73094971 L70.9669558,7.73094971 L70.9669558,10.0656605 L71.2383262,10.0656605 L71.2383262,8.30946211 L72.0524375,10.0656605 L72.3577292,10.0656605 L72.3577292,7.73094971 L72.0863588,7.73094971 L72.0863588,9.4664869 Z M70.1867658,10.0656605 L70.5599001,10.0656605 L70.5599001,9.73508194 L70.5090182,9.73508194 L70.5090182,8.04086707 L70.5599001,8.04086707 L70.5599001,7.71028856 L70.1867658,7.71028856 L70.1867658,8.04086707 L70.2376478,8.04086707 L70.2376478,9.73508194 L70.1867658,9.73508194 L70.1867658,10.0656605 Z M67.9309992,7.73094971 L68.4907007,8.92929682 L68.4907007,10.0863216 L68.7620711,10.0863216 L68.7620711,8.92929682 L69.3217726,7.73094971 L69.0164809,7.73094971 L68.6263859,8.57805715 L68.2362909,7.73094971 L67.9309992,7.73094971 Z M67.7783533,8.10285054 C67.5917862,7.8342555 67.3204157,7.64830508 67.015124,7.64830508 C66.4384619,7.64830508 66.0144456,8.18549517 66.0144456,8.88797451 C66.0144456,9.56979269 66.4384619,10.1276439 66.9981634,10.1276439 C67.5239436,10.1276439 67.9479598,9.63177616 67.9818811,9.05326376 L67.7274714,8.74334641 L66.7267929,8.74334641 L66.7267929,9.07392492 L67.7105107,9.07392492 C67.6765894,9.50780922 67.3882583,9.81772657 66.9981634,9.81772657 C66.5571864,9.81772657 66.285816,9.42516459 66.285816,8.90863566 C66.285816,8.37144558 66.5571864,7.99954475 66.9981634,7.99954475 C67.2525731,7.99954475 67.456101,8.14417285 67.5917862,8.35078442 L67.7783533,8.10285054 Z M64.7763181,8.72268525 L64.7763181,8.04086707 L65.2003343,8.04086707 C65.3529802,8.04086707 65.5056261,8.16483401 65.5056261,8.37144558 C65.5056261,8.57805715 65.3529802,8.70202409 65.2003343,8.70202409 L64.7763181,8.70202409 L64.7763181,8.72268525 Z M65.166413,9.03260261 C65.4886654,9.03260261 65.7769965,8.78466872 65.7769965,8.37144558 C65.7769965,7.95822244 65.5056261,7.71028856 65.1833737,7.71028856 L64.5049476,7.71028856 L64.5049476,10.0656605 L64.7763181,10.0656605 L64.7763181,9.03260261 L64.8272,9.03260261 L65.5056261,10.0656605 L65.8278784,10.0656605 L65.8278784,10.003677 L65.166413,9.03260261 Z M62.9954497,10.0656605 L64.148774,10.0656605 L64.148774,9.73508194 L63.2668201,9.73508194 L63.2668201,9.03260261 L64.1318133,9.03260261 L64.1318133,8.70202409 L63.2668201,8.70202409 L63.2668201,8.02020591 L64.148774,8.02020591 L64.148774,7.6896274 L62.9954497,7.6896274 L62.9954497,10.0656605 Z M62.300063,9.4664869 L61.4859517,7.73094971 L61.18066,7.73094971 L61.18066,10.0656605 L61.4520304,10.0656605 L61.4520304,8.30946211 L62.2661417,10.0656605 L62.5714334,10.0656605 L62.5714334,7.73094971 L62.300063,7.73094971 L62.300063,9.4664869 Z M59.671162,10.0656605 L60.8244863,10.0656605 L60.8244863,9.73508194 L59.9425324,9.73508194 L59.9425324,9.03260261 L60.8075256,9.03260261 L60.8075256,8.70202409 L59.9425324,8.70202409 L59.9425324,8.02020591 L60.8244863,8.02020591 L60.8244863,7.6896274 L59.671162,7.6896274 L59.671162,10.0656605 Z M56.9744185,8.90863566 C56.9744185,8.37144558 57.2797102,7.99954475 57.7206871,7.99954475 C58.161664,7.99954475 58.4499951,8.39210674 58.4499951,8.90863566 C58.4499951,9.42516459 58.1447034,9.81772657 57.7206871,9.81772657 C57.2797102,9.81772657 56.9744185,9.42516459 56.9744185,8.90863566 M56.703048,8.88797451 C56.703048,9.56979269 57.1609856,10.1276439 57.7206871,10.1276439 C58.2803886,10.1276439 58.7383262,9.56979269 58.7383262,8.88797451 C58.7383262,8.20615632 58.2803886,7.64830508 57.7206871,7.64830508 C57.1609856,7.64830508 56.703048,8.20615632 56.703048,8.88797451 M56.1433465,8.04086707 L56.6691267,8.04086707 L56.6691267,7.71028856 L55.3292353,7.71028856 L55.3292353,8.04086707 L55.8550155,8.04086707 L55.8550155,10.0656605 L56.1263859,10.0656605 L56.1433465,8.04086707 L56.1433465,8.04086707 Z M54.4812027,8.33012327 C54.4812027,7.93756128 54.2098323,7.66896624 53.8536586,7.66896624 C53.5144456,7.66896624 53.2600358,7.93756128 53.2600358,8.30946211 C53.2600358,8.70202409 53.4805243,8.92929682 53.7349341,9.01194145 C53.8027767,9.03260261 53.8875799,9.05326376 53.9384619,9.07392492 C54.0741471,9.11524723 54.2437536,9.1772307 54.2437536,9.42516459 C54.2437536,9.65243732 54.0911077,9.79706542 53.8706193,9.79706542 C53.6670915,9.79706542 53.4635636,9.611115 53.4805243,9.30119765 L53.2091539,9.42516459 C53.2091539,9.77640426 53.5314062,10.1276439 53.8875799,10.1276439 C54.2946356,10.1276439 54.5320847,9.77640426 54.5320847,9.42516459 C54.5320847,9.03260261 54.3285569,8.82599104 54.0571864,8.74334641 C53.9893438,8.72268525 53.9215012,8.70202409 53.8536586,8.68136294 C53.6501308,8.61937946 53.5483669,8.49541252 53.5483669,8.30946211 C53.5483669,8.1235117 53.6670915,7.9788836 53.8706193,7.9788836 C54.0571864,7.9788836 54.1928716,8.14417285 54.1928716,8.33012327 L54.4812027,8.33012327 L54.4812027,8.33012327 Z M52.9208228,8.33012327 C52.9208228,7.93756128 52.6494524,7.66896624 52.2932787,7.66896624 C51.9540657,7.66896624 51.6996559,7.93756128 51.6996559,8.30946211 C51.6996559,8.70202409 51.9201444,8.92929682 52.1745541,9.01194145 C52.2423967,9.03260261 52.3272,9.05326376 52.378082,9.07392492 C52.5137672,9.11524723 52.6833737,9.1772307 52.6833737,9.42516459 C52.6833737,9.65243732 52.5307278,9.79706542 52.3102394,9.79706542 C52.1067115,9.79706542 51.9031837,9.611115 51.9201444,9.30119765 L51.648774,9.42516459 C51.648774,9.77640426 51.9710263,10.1276439 52.3272,10.1276439 C52.7342556,10.1276439 52.9717048,9.77640426 52.9717048,9.42516459 C52.9717048,9.03260261 52.7681769,8.82599104 52.4968065,8.74334641 C52.4289639,8.72268525 52.3611213,8.70202409 52.2932787,8.68136294 C52.0897509,8.61937946 51.987987,8.49541252 51.987987,8.30946211 C51.987987,8.1235117 52.1067115,7.9788836 52.3102394,7.9788836 C52.4968065,7.9788836 52.6324917,8.14417285 52.6324917,8.33012327 L52.9208228,8.33012327 L52.9208228,8.33012327 Z M50.2580005,10.0656605 L51.4113248,10.0656605 L51.4113248,9.73508194 L50.5463316,9.73508194 L50.5463316,9.03260261 L51.4113248,9.03260261 L51.4113248,8.70202409 L50.5463316,8.70202409 L50.5463316,8.02020591 L51.4282855,8.02020591 L51.4282855,7.6896274 L50.2749612,7.6896274 L50.2749612,10.0656605 L50.2580005,10.0656605 Z M48.2057617,8.90863566 C48.2057617,9.59045385 48.629778,10.1483051 49.2064402,10.1483051 C49.4947712,10.1483051 49.7831023,9.98301583 49.9696695,9.69375963 L49.7831023,9.4664869 C49.6474171,9.69375963 49.4608499,9.81772657 49.2234008,9.81772657 C48.7654632,9.81772657 48.4940928,9.42516459 48.4940928,8.90863566 C48.4940928,8.39210674 48.7654632,7.99954475 49.2234008,7.99954475 C49.4778106,7.99954475 49.6643778,8.1235117 49.7831023,8.35078442 L49.9696695,8.1235117 C49.7831023,7.8342555 49.4947712,7.66896624 49.2064402,7.66896624 C48.629778,7.66896624 48.2057617,8.20615632 48.2057617,8.90863566 M46.2892081,8.90863566 C46.2892081,9.59045385 46.7132244,10.1483051 47.2898866,10.1483051 C47.5782176,10.1483051 47.8665487,9.98301583 48.0531159,9.69375963 L47.8665487,9.4664869 C47.7308635,9.69375963 47.5442963,9.81772657 47.3068472,9.81772657 C46.8489096,9.81772657 46.5775392,9.42516459 46.5775392,8.90863566 C46.5775392,8.39210674 46.8489096,7.99954475 47.3068472,7.99954475 C47.561257,7.99954475 47.7478242,8.1235117 47.8665487,8.35078442 L48.0531159,8.1235117 C47.8665487,7.8342555 47.5782176,7.66896624 47.2898866,7.66896624 C46.7132244,7.66896624 46.2892081,8.20615632 46.2892081,8.90863566 M45.4242149,8.16483401 L45.6955854,9.13590839 L45.1528445,9.13590839 L45.4242149,8.16483401 Z M44.6270643,10.0656605 L44.8984347,10.0656605 L45.0680413,9.44582575 L45.7803886,9.44582575 L45.9499951,10.0656605 L46.2213655,10.0656605 L45.5599001,7.73094971 L45.2885297,7.73094971 L44.6270643,10.0656605 Z" id="Shape"></path>
                </g>
            </g>
        </g>
    </g>
</svg>