<?xml version="1.0" encoding="UTF-8"?>
<svg width="92.604mm" height="53.514mm" version="1.1" viewBox="0 0 92.604156 53.51392" xmlns="http://www.w3.org/2000/svg" xmlns:cc="http://creativecommons.org/ns#" xmlns:dc="http://purl.org/dc/elements/1.1/" xmlns:rdf="http://www.w3.org/1999/02/22-rdf-syntax-ns#"><metadata><rdf:RDF><cc:Work rdf:about=""><dc:format>image/svg+xml</dc:format><dc:type rdf:resource="http://purl.org/dc/dcmitype/StillImage"/><dc:title/></cc:Work></rdf:RDF></metadata><path d="m33.586 12.468v19.27c0 3.6028-1.6266 4.0641-1.6266 4.0641v0.3265h10.461c3.7391 0 6.83-0.63195 9.4878-1.794 6.688-2.9322 11.047-8.9569 11.047-16.29 0-2.615-0.46505-5.065-1.3396-7.2451l-0.0011-0.0028c0-0.0028-0.0011-0.0084-0.0034-0.01022l-0.0019 9.37e-4c-0.87889-2.1744-2.1702-4.0992-3.8333-5.6975-3.3443-3.1993-8.1773-5.0899-14.185-5.0899-4.7856 0-12.464 2.5102-17.666 10.865 0.1271 0.05025 0.23745 0.0966 0.3235 0.12918h3e-3v9.37e-4h-0.0011c-0.59662-0.24075-2.296-0.89926-3.2853-1.2325-2.0115-0.68154-4.531-1.374-7.9575-1.374-8.6941 0-15.005 6.2381-15.005 14.833 0 8.7983 7.2008 13.402 14.314 13.402 5.5826 0 9.9903-2.9697 12.139-6.8963l-0.78837-0.77054c-2.5215 3.7048-5.7848 5.3455-10.161 5.3455-6.2605 0-10.47-5.1217-10.47-12.734 0-6.8761 4.3706-11.628 10.668-11.628 3.9403 0 7.1757 2.0569 8.9036 5.728l0.23808 9.37e-4 0.02149-0.06488c3.9771-9.8206 12.042-13.824 18.24-13.824 5.3253 0 9.844 2.6155 12.478 6.9105 0.79295 1.2883 1.4149 2.7261 1.8409 4.2931 0.42401 1.5664 0.65338 3.2797 0.65338 5.071 0 6.5196-3.38 11.779-7.789 14.48-2.1415 1.3086-4.9246 1.909-7.8218 1.909h-1.2333c-2.2461 0-3.2348-0.42612-3.2348-4.5234v-18.97zm-3.4824 40.213c-0.62852 0-0.79493-0.26523-0.79493-0.95872v-3.2563h1.7106v-0.76364h-1.6238c-0.08678 0-0.08678-0.04388-0.08678-0.10944v-1.3457h-0.65097c-0.14416 1.125-0.3873 1.468-1.2479 1.5784v0.64045h0.80642c0.08774 0 0.08774 0.04247 0.08774 0.10899v3.4438c0 0.9934 0.47365 1.4888 1.534 1.4888 0.56197 0 1.0933-0.16562 1.5343-0.3424l-0.24373-0.70551c-0.29728 0.12224-0.68362 0.22128-1.0249 0.22128m10.578-0.19713v-2.8396c0-1.2788-0.37595-2.0513-1.6335-2.0513-0.817 0-1.4689 0.3522-1.9534 0.70647-0.27691-0.52083-0.82869-0.70647-1.358-0.70647-0.82681 0-1.3705 0.31884-1.9545 0.77253l-0.03115-0.01003-0.08977-0.6531h-1.4461l-0.10054 0.5867 0.63195 0.20692c0.10832 0.03619 0.14207 0.11094 0.14207 0.23166v3.7562c0 0.16562-0.02246 0.19713-0.17882 0.22015l-0.5512 0.06619v0.6061h2.506v-0.59591l-0.59573-0.07641c-0.1641-0.02297-0.17636-0.04388-0.17636-0.22015v-3.3359c0.4186-0.34298 1.0041-0.68194 1.5783-0.68194 0.79513 0 0.83907 0.7157 0.83907 1.3454v2.6724c0 0.1511-0.05524 0.20675-0.1994 0.22015l-0.52928 0.06619v0.6061h2.451v-0.59591l-0.54154-0.07641c-0.16545-0.02297-0.1768-0.04388-0.1768-0.22015v-2.8053c0-0.24297-0.0098-0.47576-0.03226-0.6727 0.34186-0.24296 0.86152-0.53986 1.4573-0.53986 0.78136 0 0.93809 0.66058 0.93809 1.3559v2.6619c0 0.1511-0.05524 0.20675-0.19921 0.22015l-0.53102 0.06619v0.60609h2.5389v-0.5959l-0.62798-0.07641c-0.16636-0.02297-0.17617-0.04388-0.17617-0.22015m-40.682-6.4971l0.80625 0.075c0.15544 0.01003 0.17676 0.05513 0.17676 0.21866v6.2049c0 0.16563-0.021311 0.20675-0.17676 0.22015l-0.80625 0.076412v0.59592h3.0248v-0.59592l-0.85077-0.089816c-0.16411-0.019781-0.17638-0.041063-0.17638-0.21787v-6.1938c0-0.16356 0.01226-0.1881 0.17638-0.20905l0.85077-0.089441v-0.5963h-3.0248zm19.425 1.6125c-1.3888 0-2.5147 0.93931-2.5147 2.9577 0 1.6444 0.65044 2.957 2.6466 2.957 0.79605 0 1.4576-0.18581 2.01-0.49536l-0.32182-0.7506c-0.58404 0.28655-0.96978 0.39803-1.588 0.39803-1.2018 0-1.6555-0.76304-1.6872-1.8756h3.7074c0.01227-0.19034 0.02149-0.41105 0.02149-0.55196 0-1.9119-0.92638-2.6391-2.2737-2.6391m-1.445 2.428c0.08794-1.2271 0.70723-1.624 1.445-1.624 0.67439 0 1.2467 0.36595 1.2691 1.624zm-3.7094-1.7119 0.73833 0.08794-1.5135 4.1169-1.4872-4.1169 0.76078-0.08794v-0.60668h-2.3172l-0.13377 0.60668 0.47616 0.10127c0.13073 0.03188 0.17675 0.05569 0.22938 0.1866l1.8675 4.7793h1.1475l1.8526-4.8122c0.0553-0.1328 0.12281-0.15375 0.27806-0.18602l0.36369-0.069v-0.60668h-2.1407zm-4.8529 4.1748v-2.8715c0-1.202-0.47727-2.0194-1.7455-2.0194-0.79378 0-1.4689 0.36486-2.0435 0.77253l-0.031871-0.01003-0.088863-0.6531h-1.445l-0.099031 0.5867 0.62742 0.20692c0.11149 0.03619 0.14413 0.11094 0.14413 0.23166v3.7562c0 0.16562-0.022069 0.19713-0.17468 0.22015l-0.55196 0.06619v0.6061h2.5251v-0.59591l-0.6163-0.076409c-0.16753-0.022969-0.17882-0.043876-0.17882-0.22015v-3.3254c0.48856-0.39556 1.0843-0.7055 1.7117-0.7055 0.81816 0 0.96172 0.69497 0.96172 1.4116v2.6193c0 0.1511-0.056211 0.20675-0.20147 0.22015l-0.52817 0.06619v0.6061h2.5384v-0.59591l-0.62741-0.076408c-0.1656-0.02297-0.17579-0.043876-0.17579-0.22015m15.539-2.3768c-0.71684-0.186-1.3785-0.31824-1.3785-0.9485 0-0.47423 0.36335-0.82681 1.1701-0.82681 0.37291 0 0.70699 0.06525 0.85925 0.12132 0.089 0.02316 0.10127 0.06806 0.10938 0.14395l0.13454 0.68323 0.73925 0.04388v-1.4225c-0.23107-0.099-0.94887-0.30862-1.744-0.30862-1.1379 0-2.1969 0.46292-2.1969 1.7229 0 1.2141 0.97016 1.4344 1.8316 1.631 0.70665 0.16752 1.3365 0.32012 1.3365 0.98412 0 0.59686-0.47403 0.8702-1.2148 0.8702-0.55082 0-0.93828-0.12016-1.0813-0.17525-0.09904-0.03281-0.12054-0.07772-0.1328-0.15317l-0.13334-0.76343-0.73838-0.04388v1.4685c0.19829 0.12074 1.1026 0.37369 1.9978 0.37369 1.1701 0 2.2416-0.43896 2.2416-1.7196 0-1.1943-0.93865-1.4599-1.8001-1.681m28.04 2.3768v-2.8715c0-1.202-0.47616-2.0194-1.7462-2.0194-0.79441 0-1.4685 0.36486-2.0422 0.77252l-0.03235-0.01003-0.08789-0.6531h-1.446l-0.10016 0.5867 0.62857 0.20692c0.11243 0.03619 0.14396 0.11093 0.14396 0.23166v3.7562c0 0.16562-0.0223 0.19712-0.17564 0.22014l-0.55294 0.06619v0.60611h2.5284v-0.59592l-0.61958-0.07641c-0.16322-0.02297-0.17579-0.04388-0.17579-0.22014v-3.3254c0.48678-0.39556 1.0832-0.7055 1.7101-0.7055 0.81807 0 0.96153 0.69497 0.96153 1.4116v2.6193c0 0.15109-0.0541 0.20674-0.19896 0.22014l-0.52783 0.06619v0.60611h2.5363v-0.59592l-0.62828-0.07641c-0.16468-0.02297-0.17481-0.04388-0.17481-0.22014m36.532-2.3768c-0.7181-0.186-1.3801-0.31824-1.3801-0.9485 0-0.47423 0.36364-0.82681 1.1726-0.82681 0.37281 0 0.70457 0.06525 0.85717 0.12132 0.0908 0.02316 0.10094 0.06806 0.11204 0.14395l0.13232 0.68323 0.74031 0.04388v-1.4225c-0.23084-0.099-0.9484-0.30862-1.7438-0.30862-1.1363 0-2.1978 0.46292-2.1978 1.7229 0 1.2141 0.97062 1.4344 1.8327 1.631 0.70506 0.16752 1.3358 0.32013 1.3358 0.98412 0 0.59686-0.47519 0.8702-1.2135 0.8702-0.551 0-0.94072-0.12017-1.0822-0.17525-0.0995-0.03281-0.12122-0.07772-0.13425-0.15318l-0.13087-0.76342-0.74031-0.04388v1.4685c0.19993 0.12073 1.1035 0.3737 1.9993 0.3737 1.1701 0 2.2408-0.43898 2.2408-1.7196 0-1.1943-0.93884-1.4599-1.7999-1.681m-45.004-2.522c-1.39 0-2.5145 0.93931-2.5145 2.9577 0 1.6443 0.65045 2.957 2.6461 2.957 0.79571 0 1.4579-0.18581 2.0111-0.49537l-0.32182-0.75059c-0.58554 0.28655-0.97034 0.39803-1.59 0.39803-1.2028 0-1.6534-0.76304-1.6872-1.8756h3.7076c0.01318-0.19035 0.02336-0.41105 0.02336-0.55196 0-1.9119-0.92793-2.6391-2.2746-2.6391m-1.445 2.428c0.08679-1.227 0.70699-1.624 1.445-1.624 0.6744 0 1.2477 0.36596 1.2702 1.624zm34.514-1.5448-0.0338-0.01022-0.10962-0.76363h-1.4474l-0.09948 0.5867 0.63166 0.20692c0.10962 0.03619 0.14197 0.11093 0.14197 0.23166v3.7562c0 0.16562-0.0227 0.19713-0.17626 0.22015l-0.55149 0.06619v0.60609h2.9245v-0.5959l-1.0175-0.08982c-0.16371-0.01003-0.17579-0.04106-0.17579-0.21788v-3.3248c0.25643-0.24301 0.81807-0.69497 1.3159-0.69497 0.098 0 0.12073 0.02325 0.13088 0.11112l0.13232 0.76004 0.78377 0.03563v-1.6696c-0.19752-0.05409-0.54087-0.0972-0.7944-0.0972-0.75046 0-1.2923 0.4752-1.6555 0.88327m2.7483-14.178c-6.2596 0-10.465-5.117-10.465-12.732 0-6.8761 4.3651-11.628 10.668-11.628 3.9397 0 7.1738 2.0549 8.9012 5.728l0.23759 9.37e-4 0.01839-0.06488c0.84511-1.9815 1.7312-3.6383 2.9029-5.4012l-1.0305-0.55235c-0.29265 0.42047-0.53267 0.77513-0.81373 1.2171-0.7461-0.29632-2.1084-0.81754-2.9555-1.1041-2.0167-0.68006-4.5365-1.374-7.9609-1.374-8.6945 0-15.006 6.2381-15.006 14.833 0 8.7983 7.2003 13.406 14.315 13.406 5.5806 0 10.056-2.9732 12.208-6.8971l-0.78715-0.76909c-2.5199 3.6978-5.8554 5.338-10.232 5.338m5.1701 18.204-1.6786-2.7801 1.0054-1.1256c0.098-0.11073 0.14488-0.14396 0.27478-0.16564l0.62925-0.13188v-0.59703h-1.2242l-2.3398 2.6504v-5.3098h-1.7119l-0.0971 0.58404 0.66015 0.21108c0.11058 0.03206 0.14488 0.11074 0.14488 0.2318v6.414c0 0.16562-0.0232 0.20675-0.17772 0.22015l-0.68333 0.06619v0.60609h2.7038v-0.5959l-0.66208-0.07641c-0.16757-0.02297-0.17675-0.04388-0.17675-0.22014v-1.0411l0.92625-1.0354 1.3801 2.2833-0.69589 0.08982v0.59592h2.615v-0.59592l-0.57178-0.09941c-0.18882-0.0315-0.23277-0.04603-0.32066-0.17826m-28.78 0.17826c-0.62731 0-0.7944-0.26523-0.7944-0.95872v-3.2563h1.7119v-0.76364h-1.6236c-0.08837 0-0.08837-0.04388-0.08837-0.10943v-1.3453h-0.65146c-0.14294 1.125-0.38634 1.468-1.2464 1.5783v0.64045h0.80599c0.08692 0 0.08692 0.04247 0.08692 0.10899v3.4438c0 0.9934 0.47616 1.4888 1.5347 1.4888 0.56115 0 1.0933-0.16562 1.5343-0.34238l-0.24243-0.70553c-0.29844 0.12224-0.68671 0.22128-1.0272 0.22128m10.568-4.3719 0.71617 0.08794-1.2242 3.9526-1.0711-4.4811h-1.1594l-1.2696 4.4913-1.2373-3.9627 0.70699-0.08794v-0.60668h-2.218l-0.13232 0.60668 0.47567 0.10127c0.13232 0.03188 0.18785 0.05569 0.22938 0.1866l1.5584 4.7793h1.215l1.2121-4.3704 1.0595 4.3704h1.1803l1.4912-4.7793c0.04298-0.14395 0.08789-0.1866 0.27671-0.21886l0.39599-0.069v-0.60668h-2.0838zm5.3537-0.71611c-1.8877 0-2.7714 1.1928-2.7714 2.9245 0 1.753 0.73983 2.9902 2.6614 2.9902 1.8868 0 2.7251-1.2009 2.7251-3.0554 0-1.6583-0.72679-2.8593-2.615-2.8593m-0.07872 5.111c-1.0914 0-1.6555-0.70551-1.6555-2.1741 0-1.4579 0.63021-2.0986 1.7119-2.0986 1.0707 0 1.599 0.64078 1.599 2.0862 0 1.5125-0.58481 2.1865-1.6555 2.1865" fill="#231f20" stroke-width=".93753"/></svg>
