<?xml version="1.0" encoding="utf-8"?>
<!-- Generator: Adobe Illustrator 19.2.1, SVG Export Plug-In . SVG Version: 6.00 Build 0)  -->
<svg version="1.1" id="layer" xmlns="http://www.w3.org/2000/svg" xmlns:xlink="http://www.w3.org/1999/xlink" x="0px" y="0px"
	 viewBox="0 0 652 652" style="enable-background:new 0 0 652 652;" xml:space="preserve">
<style type="text/css">
	<!-- .st0{fill:#D00C27;} -->
	<!-- .st1{fill:#001F7E;} -->
	.st0{fill:black;}
	.st1{fill:black;}
</style>
<polygon class="st0" points="352.6,347 352.6,238.7 552.3,238.7 552.3,184.5 352.6,184.5 352.6,76.2 298.2,76.2 298.2,184.5 
	98.6,184.5 98.6,238.7 298.2,238.7 298.2,347 "/>
<polygon class="st0" points="98.6,347 249.8,256.8 280,256.8 280,259.8 133.8,347 "/>
<polygon class="st0" points="370.8,163.5 517,76.2 552.3,76.2 401,166.5 370.8,166.5 "/>
<polygon class="st0" points="436.3,256.8 552.3,326 552.3,347 401,256.8 "/>
<polygon class="st0" points="214.5,166.5 98.6,97.2 98.6,76.2 249.8,166.5 "/>
<polygon class="st1" points="370.8,347 499.4,347 370.8,270.3 "/>
<polygon class="st1" points="151.5,347 280,347 280,270.3 "/>
<polygon class="st1" points="552.3,315.5 552.3,256.8 453.9,256.8 "/>
<polygon class="st1" points="98.6,107.8 98.6,166.5 196.9,166.5 "/>
<polygon class="st1" points="370.8,76.2 370.8,152.9 499.3,76.2 "/>
<polygon class="st1" points="98.6,256.8 98.6,315.5 196.9,256.8 "/>
<polygon class="st1" points="280,76.2 151.5,76.2 280,152.9 "/>
<polygon class="st1" points="552.3,166.5 552.3,107.8 453.9,166.5 "/>
<path class="st1" d="M546.2,550.5c-0.3-0.8-0.8-1.5-1.4-2.1c-0.6-0.6-1.3-1.1-2.1-1.4c-0.8-0.3-1.7-0.5-2.7-0.5
	c-1,0-1.9,0.2-2.7,0.5c-0.8,0.4-1.5,0.8-2.1,1.4s-1,1.3-1.4,2.1c-0.3,0.8-0.5,1.7-0.6,2.6h13.5C546.8,552.2,546.6,551.4,546.2,550.5
	 M547.1,565.7c-1.8,1.3-4,2-6.7,2c-1.9,0-3.5-0.3-4.9-0.9c-1.4-0.6-2.5-1.5-3.5-2.6c-0.9-1.1-1.7-2.4-2.1-3.9
	c-0.5-1.5-0.7-3.2-0.8-5c0-1.8,0.3-3.4,0.8-4.9c0.6-1.5,1.3-2.8,2.3-3.9c1-1.1,2.2-1.9,3.5-2.6c1.4-0.6,2.8-0.9,4.4-0.9
	c2.1,0,3.8,0.4,5.2,1.3c1.4,0.9,2.5,2,3.3,3.3c0.8,1.3,1.4,2.8,1.7,4.4c0.3,1.6,0.5,3.1,0.4,4.5h-17.7c0,1,0.1,2,0.4,2.9
	c0.3,0.9,0.7,1.8,1.3,2.5c0.6,0.7,1.4,1.3,2.3,1.7c0.9,0.4,2,0.6,3.3,0.6c1.6,0,3-0.4,4-1.1c1-0.8,1.7-1.9,2.1-3.5h3.8
	C550,562.4,548.9,564.4,547.1,565.7 M525.1,567.2h-3.9v-32.6h3.9V567.2z M512.6,552c-0.3-1-0.7-2-1.3-2.8c-0.6-0.8-1.4-1.5-2.3-2
	c-0.9-0.5-2-0.7-3.3-0.7c-1.3,0-2.4,0.3-3.3,0.8c-0.9,0.5-1.7,1.2-2.2,2c-0.6,0.8-1,1.8-1.3,2.8c-0.3,1.1-0.4,2.1-0.4,3.2
	c0,1.2,0.1,2.3,0.4,3.4c0.3,1.1,0.7,2,1.3,2.9c0.6,0.8,1.4,1.5,2.3,2c0.9,0.5,2.1,0.7,3.4,0.7c1.3,0,2.5-0.3,3.4-0.8
	c0.9-0.5,1.6-1.2,2.2-2c0.5-0.9,0.9-1.8,1.2-2.9c0.2-1.1,0.4-2.2,0.4-3.4C513,554.1,512.9,553,512.6,552 M498.6,543.6v3.2h0.1
	c0.6-1.3,1.6-2.3,3-2.8c1.4-0.6,2.9-0.9,4.5-0.9c1.8,0,3.4,0.3,4.8,1c1.4,0.7,2.5,1.6,3.4,2.7c0.9,1.1,1.6,2.5,2,3.9
	c0.5,1.5,0.7,3.1,0.7,4.8c0,1.7-0.2,3.3-0.7,4.7c-0.4,1.5-1.1,2.8-2,3.9c-0.9,1.1-2,2-3.4,2.6c-1.4,0.6-2.9,1-4.7,1
	c-0.6,0-1.2-0.1-1.9-0.2c-0.7-0.1-1.4-0.3-2.1-0.6c-0.7-0.3-1.4-0.6-2-1.1c-0.6-0.5-1.1-1.1-1.6-1.8h-0.1v12.1h-3.9v-32.6H498.6z
	 M472.5,559.2c0.4,1.1,0.9,2,1.6,2.8c0.7,0.7,1.5,1.3,2.4,1.7c0.9,0.4,1.8,0.6,2.8,0.6s2-0.2,2.9-0.6c0.9-0.4,1.7-1,2.3-1.7
	c0.7-0.7,1.2-1.7,1.6-2.8c0.4-1.1,0.6-2.4,0.6-3.8c0-1.4-0.2-2.7-0.6-3.8c-0.4-1.1-0.9-2-1.6-2.8c-0.7-0.8-1.5-1.3-2.3-1.7
	c-0.9-0.4-1.9-0.6-2.9-0.6s-2,0.2-2.8,0.6c-0.9,0.4-1.7,1-2.4,1.7c-0.7,0.8-1.2,1.7-1.6,2.8c-0.4,1.1-0.6,2.4-0.6,3.8
	C472,556.9,472.1,558.1,472.5,559.2 M468.6,550.6c0.5-1.5,1.2-2.8,2.2-3.9c1-1.1,2.2-2,3.6-2.6c1.4-0.6,3.1-1,4.9-1
	c1.9,0,3.5,0.3,4.9,1c1.4,0.6,2.6,1.5,3.6,2.6c1,1.1,1.7,2.4,2.2,3.9c0.5,1.5,0.7,3.1,0.7,4.9c0,1.7-0.2,3.4-0.7,4.8
	c-0.5,1.5-1.2,2.8-2.2,3.9c-1,1.1-2.2,2-3.6,2.6c-1.4,0.6-3.1,0.9-4.9,0.9c-1.9,0-3.5-0.3-4.9-0.9c-1.4-0.6-2.6-1.5-3.6-2.6
	c-1-1.1-1.7-2.4-2.2-3.9c-0.5-1.5-0.7-3.1-0.7-4.8C467.9,553.7,468.1,552.1,468.6,550.6 M460.7,550.5c-0.3-0.8-0.8-1.5-1.4-2.1
	c-0.6-0.6-1.3-1.1-2.1-1.4c-0.8-0.3-1.7-0.5-2.7-0.5c-1,0-1.9,0.2-2.7,0.5c-0.8,0.4-1.5,0.8-2.1,1.4c-0.6,0.6-1,1.3-1.4,2.1
	c-0.3,0.8-0.5,1.7-0.6,2.6h13.6C461.2,552.2,461,551.4,460.7,550.5 M461.6,565.7c-1.8,1.3-4,2-6.7,2c-1.9,0-3.5-0.3-4.9-0.9
	c-1.4-0.6-2.5-1.5-3.5-2.6c-0.9-1.1-1.6-2.4-2.1-3.9c-0.5-1.5-0.7-3.2-0.8-5c0-1.8,0.3-3.4,0.8-4.9c0.6-1.5,1.3-2.8,2.3-3.9
	c1-1.1,2.2-1.9,3.5-2.6c1.4-0.6,2.8-0.9,4.4-0.9c2.1,0,3.8,0.4,5.2,1.3c1.4,0.9,2.5,2,3.3,3.3c0.8,1.3,1.4,2.8,1.7,4.4
	c0.3,1.6,0.5,3.1,0.4,4.5h-17.7c0,1,0.1,2,0.4,2.9c0.3,0.9,0.7,1.8,1.3,2.5c0.6,0.7,1.4,1.3,2.3,1.7c0.9,0.4,2,0.6,3.3,0.6
	c1.6,0,3-0.4,4-1.1c1-0.8,1.7-1.9,2.1-3.5h3.8C464.5,562.4,463.4,564.4,461.6,565.7 M436.4,552c-0.3-1-0.7-2-1.3-2.8
	c-0.6-0.8-1.4-1.5-2.3-2c-0.9-0.5-2-0.7-3.3-0.7c-1.3,0-2.4,0.3-3.3,0.8c-0.9,0.5-1.7,1.2-2.2,2c-0.6,0.8-1,1.8-1.3,2.8
	c-0.3,1.1-0.4,2.1-0.4,3.2c0,1.2,0.1,2.3,0.4,3.4c0.3,1.1,0.7,2,1.3,2.9c0.6,0.8,1.4,1.5,2.3,2c0.9,0.5,2.1,0.7,3.4,0.7
	c1.3,0,2.5-0.3,3.4-0.8c0.9-0.5,1.6-1.2,2.2-2c0.5-0.9,0.9-1.8,1.2-2.9c0.2-1.1,0.4-2.2,0.4-3.4C436.9,554.1,436.7,553,436.4,552
	 M422.5,543.6v3.2h0.1c0.6-1.3,1.6-2.3,3-2.8c1.4-0.6,2.9-0.9,4.5-0.9c1.8,0,3.4,0.3,4.8,1c1.4,0.7,2.5,1.6,3.4,2.7
	c0.9,1.1,1.6,2.5,2,3.9c0.5,1.5,0.7,3.1,0.7,4.8c0,1.7-0.2,3.3-0.7,4.7c-0.4,1.5-1.1,2.8-2,3.9c-0.9,1.1-2,2-3.4,2.6
	c-1.4,0.6-2.9,1-4.7,1c-0.6,0-1.2-0.1-1.9-0.2c-0.7-0.1-1.4-0.3-2.1-0.6c-0.7-0.3-1.4-0.6-2-1.1c-0.6-0.5-1.1-1.1-1.6-1.8h-0.1v12.1
	h-3.9v-32.6H422.5z M384.3,534.6v12.5h0.1c0.3-0.7,0.7-1.3,1.3-1.9c0.6-0.5,1.2-0.9,1.9-1.2c0.7-0.3,1.4-0.6,2.1-0.7
	c0.7-0.2,1.5-0.2,2.2-0.2c1.5,0,2.8,0.2,3.9,0.6c1,0.4,1.9,1,2.5,1.8c0.6,0.8,1.1,1.7,1.3,2.7c0.3,1,0.4,2.2,0.4,3.5v15.5h-3.9v-16
	c0-1.5-0.4-2.6-1.3-3.5c-0.9-0.9-2-1.3-3.5-1.3c-1.2,0-2.2,0.2-3.1,0.6c-0.9,0.4-1.6,0.9-2.2,1.5c-0.6,0.7-1,1.5-1.3,2.3
	c-0.3,0.9-0.4,1.9-0.4,2.9v13.3h-3.9v-32.6H384.3z M361.1,561.9c0.4,0.6,0.8,1.1,1.4,1.4c0.6,0.4,1.3,0.6,2,0.8
	c0.7,0.2,1.5,0.2,2.3,0.2c0.6,0,1.2,0,1.9-0.1c0.7-0.1,1.3-0.3,1.9-0.5c0.6-0.2,1-0.6,1.4-1.1c0.4-0.5,0.5-1.1,0.5-1.8
	c0-1-0.4-1.8-1.1-2.3c-0.8-0.5-1.7-0.9-2.9-1.3c-1.1-0.3-2.4-0.6-3.7-0.9c-1.3-0.3-2.6-0.6-3.7-1.1c-1.1-0.5-2.1-1.1-2.9-2
	c-0.8-0.9-1.1-2-1.1-3.6c0-1.2,0.3-2.2,0.8-3.1c0.5-0.9,1.2-1.5,2-2.1c0.8-0.5,1.8-0.9,2.8-1.2c1-0.3,2.1-0.4,3.1-0.4
	c1.3,0,2.6,0.1,3.7,0.3c1.1,0.2,2.1,0.6,3,1.2c0.9,0.6,1.6,1.3,2.1,2.3c0.5,1,0.8,2.2,0.9,3.6h-3.9c-0.1-0.8-0.3-1.4-0.6-1.9
	c-0.3-0.5-0.8-0.9-1.3-1.2c-0.5-0.3-1.1-0.5-1.7-0.7c-0.6-0.1-1.3-0.2-1.9-0.2c-0.6,0-1.2,0.1-1.8,0.1c-0.6,0.1-1.1,0.2-1.6,0.5
	c-0.5,0.2-0.9,0.5-1.2,0.9c-0.3,0.4-0.5,0.9-0.5,1.5c0,0.7,0.2,1.2,0.7,1.7c0.5,0.4,1.1,0.8,1.8,1.1c0.7,0.3,1.6,0.5,2.5,0.7
	c0.9,0.2,1.8,0.4,2.7,0.6c1,0.2,1.9,0.5,2.9,0.8c0.9,0.3,1.7,0.7,2.5,1.2c0.7,0.5,1.3,1.1,1.7,1.9c0.4,0.8,0.7,1.7,0.7,2.8
	c0,1.4-0.3,2.6-0.9,3.6c-0.6,0.9-1.4,1.7-2.3,2.3s-2,1-3.2,1.2c-1.2,0.2-2.4,0.3-3.6,0.3c-1.3,0-2.6-0.1-3.7-0.4
	c-1.2-0.3-2.2-0.7-3.1-1.3c-0.9-0.6-1.6-1.5-2.2-2.5c-0.6-1-0.9-2.3-0.9-3.7h3.9C360.6,560.6,360.8,561.3,361.1,561.9 M352.7,567.2
	h-3.9v-23.6h3.9V567.2z M348.8,534.6h3.9v4.7h-3.9V534.6z M345.3,543.6v3.4h-4.7v14.6c0,0.5,0,0.8,0.1,1.1c0.1,0.3,0.2,0.5,0.4,0.6
	c0.2,0.2,0.5,0.2,0.9,0.3s0.9,0.1,1.5,0.1h1.8v3.4h-3c-1,0-1.9-0.1-2.6-0.2c-0.7-0.1-1.3-0.4-1.7-0.8c-0.4-0.4-0.8-0.9-1-1.5
	c-0.2-0.7-0.3-1.6-0.3-2.7v-15h-4v-3.4h4v-7.1h3.9v7.1H345.3z M329.9,567.2H326v-23.6h3.9V567.2z M326,534.6h3.9v4.7H326V534.6z
	 M314.7,543.6v5h0.1c0.9-1.9,2.1-3.3,3.5-4.2c1.4-0.9,3.1-1.3,5.2-1.3v4.1c-1.5,0-2.9,0.2-4,0.6c-1.1,0.4-2,1-2.6,1.9
	c-0.7,0.8-1.2,1.8-1.5,3c-0.3,1.2-0.5,2.5-0.5,4v10.5H311v-23.6H314.7z M296.3,563.5c1.9,0,3.4-0.5,4.5-1.5c1.1-1,1.6-2.5,1.6-4.3
	c0-1.1-0.2-1.9-0.6-2.7c-0.4-0.7-0.9-1.3-1.6-1.7c-0.7-0.4-1.4-0.7-2.3-0.9c-0.9-0.2-1.7-0.2-2.6-0.2h-9.9v11.3H296.3z M294.1,548.6
	c2.5,0,4.2-0.4,5.3-1.3c1.1-0.9,1.6-2.2,1.6-3.9c0-1.2-0.2-2.1-0.6-2.7c-0.4-0.7-0.9-1.2-1.5-1.5c-0.6-0.4-1.4-0.6-2.2-0.7
	c-0.8-0.1-1.7-0.2-2.7-0.2h-8.7v10.4H294.1z M292.9,534.6c0.7,0,1.4,0,2.3,0c0.8,0,1.6,0.1,2.4,0.1c0.8,0.1,1.5,0.2,2.2,0.3
	c0.7,0.2,1.3,0.4,1.8,0.7c1.1,0.6,2,1.5,2.7,2.7c0.7,1.1,1.1,2.5,1.1,4.2c0,1.7-0.4,3.2-1.3,4.5c-0.8,1.3-2,2.2-3.6,2.8v0.1
	c2,0.4,3.5,1.3,4.6,2.7c1.1,1.4,1.6,3.1,1.6,5.1c0,1.2-0.2,2.3-0.6,3.5c-0.4,1.1-1.1,2.1-1.9,3c-0.8,0.9-1.9,1.6-3.1,2.1
	c-1.2,0.5-2.7,0.8-4.3,0.8h-15.7v-32.6H292.9z M259,550.5c-0.3-0.8-0.8-1.5-1.4-2.1c-0.6-0.6-1.3-1.1-2.1-1.4
	c-0.8-0.3-1.7-0.5-2.7-0.5c-1,0-1.9,0.2-2.7,0.5c-0.8,0.4-1.5,0.8-2.1,1.4s-1,1.3-1.4,2.1c-0.3,0.8-0.5,1.7-0.6,2.6h13.5
	C259.6,552.2,259.4,551.4,259,550.5 M260,565.7c-1.8,1.3-4,2-6.7,2c-1.9,0-3.5-0.3-4.9-0.9c-1.4-0.6-2.5-1.5-3.5-2.6
	c-0.9-1.1-1.6-2.4-2.1-3.9c-0.5-1.5-0.7-3.2-0.8-5c0-1.8,0.3-3.4,0.8-4.9c0.6-1.5,1.3-2.8,2.3-3.9c1-1.1,2.2-1.9,3.5-2.6
	c1.4-0.6,2.8-0.9,4.4-0.9c2.1,0,3.8,0.4,5.2,1.3c1.4,0.9,2.5,2,3.3,3.3c0.8,1.3,1.4,2.8,1.7,4.4c0.3,1.6,0.5,3.1,0.4,4.5h-17.7
	c0,1,0.1,2,0.4,2.9c0.3,0.9,0.7,1.8,1.3,2.5c0.6,0.7,1.4,1.3,2.3,1.7c0.9,0.4,2,0.6,3.3,0.6c1.6,0,3-0.4,4-1.1
	c1-0.8,1.7-1.9,2.1-3.5h3.8C262.9,562.4,261.7,564.4,260,565.7 M222.5,534.6v12.5h0.1c0.3-0.7,0.7-1.3,1.3-1.9
	c0.5-0.5,1.2-0.9,1.8-1.2c0.7-0.3,1.4-0.6,2.1-0.7c0.7-0.2,1.5-0.2,2.2-0.2c1.5,0,2.8,0.2,3.9,0.6c1,0.4,1.9,1,2.5,1.8
	c0.6,0.8,1.1,1.7,1.3,2.7c0.3,1,0.4,2.2,0.4,3.5v15.5h-3.9v-16c0-1.5-0.4-2.6-1.3-3.5c-0.9-0.9-2-1.3-3.5-1.3
	c-1.2,0-2.2,0.2-3.1,0.6c-0.9,0.4-1.6,0.9-2.2,1.5c-0.6,0.7-1,1.5-1.3,2.3c-0.3,0.9-0.4,1.9-0.4,2.9v13.3h-3.9v-32.6H222.5z
	 M215.3,543.6v3.4h-4.7v14.6c0,0.5,0,0.8,0.1,1.1c0.1,0.3,0.2,0.5,0.4,0.6c0.2,0.2,0.5,0.2,0.9,0.3c0.4,0,0.9,0.1,1.5,0.1h1.8v3.4
	h-3c-1,0-1.9-0.1-2.6-0.2c-0.7-0.1-1.3-0.4-1.7-0.8c-0.4-0.4-0.8-0.9-1-1.5c-0.2-0.7-0.3-1.6-0.3-2.7v-15h-4v-3.4h4v-7.1h3.9v7.1
	H215.3z M157.3,543.6v3.5h0.1c1.8-2.7,4.3-4,7.6-4c1.5,0,2.8,0.3,4,0.9c1.2,0.6,2,1.6,2.5,3.1c0.8-1.3,1.8-2.3,3.1-3
	c1.3-0.7,2.7-1,4.3-1c1.2,0,2.3,0.1,3.2,0.4c1,0.3,1.8,0.7,2.5,1.2c0.7,0.6,1.2,1.3,1.6,2.1c0.4,0.9,0.6,1.9,0.6,3.1v17.3h-3.9
	v-15.5c0-0.7-0.1-1.4-0.2-2.1c-0.1-0.6-0.3-1.2-0.7-1.7c-0.3-0.5-0.8-0.8-1.4-1.1c-0.6-0.3-1.4-0.4-2.3-0.4c-1.9,0-3.4,0.6-4.5,1.6
	c-1.1,1.1-1.6,2.6-1.6,4.4v14.7h-3.9v-15.5c0-0.8-0.1-1.5-0.2-2.1c-0.1-0.6-0.4-1.2-0.7-1.7c-0.3-0.5-0.8-0.8-1.3-1.1
	c-0.6-0.3-1.3-0.4-2.2-0.4c-1.1,0-2.1,0.2-2.9,0.7c-0.8,0.5-1.5,1-2,1.6c-0.5,0.6-0.9,1.3-1.1,2c-0.2,0.7-0.3,1.3-0.3,1.7v14.7h-3.9
	v-23.6H157.3z M131.4,559.2c0.4,1.1,0.9,2,1.6,2.8c0.7,0.7,1.4,1.3,2.3,1.7c0.9,0.4,1.8,0.6,2.8,0.6c1,0,2-0.2,2.9-0.6
	c0.9-0.4,1.7-1,2.3-1.7c0.7-0.7,1.2-1.7,1.6-2.8c0.4-1.1,0.6-2.4,0.6-3.8c0-1.4-0.2-2.7-0.6-3.8c-0.4-1.1-0.9-2-1.6-2.8
	c-0.7-0.8-1.4-1.3-2.3-1.7c-0.9-0.4-1.9-0.6-2.9-0.6c-1,0-1.9,0.2-2.8,0.6c-0.9,0.4-1.7,1-2.3,1.7c-0.7,0.8-1.2,1.7-1.6,2.8
	c-0.4,1.1-0.6,2.4-0.6,3.8C130.9,556.9,131.1,558.1,131.4,559.2 M127.5,550.6c0.5-1.5,1.2-2.8,2.2-3.9c1-1.1,2.2-2,3.6-2.6
	c1.4-0.6,3.1-1,4.9-1c1.9,0,3.5,0.3,5,1c1.4,0.6,2.6,1.5,3.6,2.6c1,1.1,1.7,2.4,2.2,3.9c0.5,1.5,0.7,3.1,0.7,4.9
	c0,1.7-0.2,3.4-0.7,4.8c-0.5,1.5-1.2,2.8-2.2,3.9c-1,1.1-2.2,2-3.6,2.6c-1.4,0.6-3.1,0.9-5,0.9c-1.9,0-3.5-0.3-4.9-0.9
	c-1.4-0.6-2.6-1.5-3.6-2.6c-1-1.1-1.7-2.4-2.2-3.9c-0.5-1.5-0.7-3.1-0.7-4.8C126.8,553.7,127,552.1,127.5,550.6 M117.1,543.6v5h0.1
	c0.9-1.9,2.1-3.3,3.5-4.2c1.4-0.9,3.1-1.3,5.2-1.3v4.1c-1.6,0-2.9,0.2-4,0.6c-1.1,0.4-2,1-2.7,1.9c-0.7,0.8-1.2,1.8-1.5,3
	c-0.3,1.2-0.5,2.5-0.5,4v10.5h-3.9v-23.6H117.1z M98.4,547v-3.4h4v-3.5c0-1.9,0.6-3.4,1.7-4.4c1.1-1,2.7-1.5,4.9-1.5
	c0.4,0,0.8,0,1.3,0.1c0.5,0.1,0.9,0.2,1.3,0.3v3.4c-0.3-0.1-0.7-0.2-1.1-0.3c-0.4,0-0.8-0.1-1.1-0.1c-0.9,0-1.7,0.2-2.2,0.5
	c-0.5,0.4-0.8,1.1-0.8,2.1v3.3h4.6v3.4h-4.6v20.2h-3.9V547H98.4z"/>
<path class="st0" d="M520.7,480.9c3.8-5.5,5.8-12.6,5.8-21.3c0-12.2-3.1-20.9-9.2-26.1c-3.8-3.2-8.2-4.8-13.2-4.8
	c-7.6,0-13.2,2.9-16.8,8.6c-3.6,5.8-5.3,12.9-5.3,21.4c0,9.2,1.8,16.6,5.4,22.1c3.6,5.5,9.1,8.3,16.5,8.3
	C511.3,489.2,516.9,486.4,520.7,480.9 M514.3,410c4.7,2.7,8.5,6.3,11.4,11v-47.5h26.4V508h-25.3v-13.8c-3.7,5.9-8,10.2-12.7,12.9
	c-4.8,2.7-10.7,4-17.7,4c-11.6,0-21.4-4.7-29.4-14.1c-8-9.4-11.9-21.5-11.9-36.2c0-17,3.9-30.4,11.8-40.1
	c7.8-9.7,18.3-14.6,31.4-14.6C504.3,406,509.6,407.3,514.3,410 M413,508h26.4v-99.6H413V508z M439.5,373.4H413v26.4h26.4V373.4z
	 M366.4,459.6c-1.7,1-3.4,1.9-5.1,2.5c-1.7,0.6-4,1.2-7,1.8l-5.9,1.1c-5.6,1-9.5,2.2-12,3.6c-4.1,2.4-6.2,6.1-6.2,11.1
	c0,4.4,1.3,7.7,3.8,9.6c2.5,2,5.6,3,9.1,3c5.7,0,10.9-1.6,15.7-4.9s7.3-9.3,7.5-18V459.6z M350.4,447.4c4.8-0.6,8.3-1.4,10.4-2.3
	c3.7-1.6,5.6-4,5.6-7.4c0-4.1-1.4-6.9-4.3-8.5c-2.9-1.5-7.1-2.3-12.6-2.3c-6.2,0-10.7,1.5-13.2,4.6c-1.9,2.3-3.1,5.3-3.7,9.1h-25.1
	c0.6-8.7,3-15.9,7.3-21.5c6.9-8.8,18.8-13.2,35.6-13.2c11,0,20.7,2.2,29.2,6.5c8.5,4.3,12.8,12.5,12.8,24.5v45.7
	c0,3.2,0.1,7,0.2,11.5c0.2,3.4,0.7,5.7,1.5,6.9c0.9,1.2,2.1,2.2,3.8,3v3.8h-28.3c-0.8-2-1.3-3.9-1.6-5.7c-0.3-1.8-0.6-3.8-0.7-6
	c-3.6,3.9-7.8,7.2-12.5,10c-5.6,3.2-12,4.8-19.1,4.8c-9.1,0-16.6-2.6-22.5-7.7c-5.9-5.2-8.9-12.4-8.9-21.9
	c0-12.2,4.8-21.1,14.3-26.6c5.2-3,12.9-5.1,23-6.4L350.4,447.4z"/>
<polygon class="st1" points="201.7,405.6 222.7,405.6 222.7,447.8 262.3,405.6 289.9,405.6 247.9,447.7 292.1,508 264.6,508 
	233,463.3 222.7,473.8 222.7,508 201.7,508 "/>
<path class="st1" d="M98.6,405.6h21.7v62.9c0,7,0.8,12.2,2.5,15.4c2.6,5.7,8.2,8.6,16.9,8.6c8.6,0,14.2-2.9,16.8-8.6
	c1.7-3.2,2.5-8.4,2.5-15.4v-62.9h21.7v62.9c0,10.9-1.7,19.4-5.1,25.4c-6.3,11.1-18.3,16.7-36,16.7s-29.7-5.6-36.1-16.7
	c-3.4-6.1-5.1-14.5-5.1-25.4V405.6z"/>
</svg>
